<?xml version="1.0" encoding="UTF-8"?>
<svg version="1.1" xmlns="http://www.w3.org/2000/svg" width="256" height="256">
<path d="M0 0 C84.48 0 168.96 0 256 0 C256 84.48 256 168.96 256 256 C171.52 256 87.04 256 0 256 C0 171.52 0 87.04 0 0 Z " fill="#0157A7" transform="translate(0,0)"/>
<path d="M0 0 C3.5625 0.3125 3.5625 0.3125 4.9921875 1.8203125 C6.47999462 3.52795245 6.47999462 3.52795245 8.82421875 3.60546875 C9.62472656 3.57066406 10.42523438 3.53585938 11.25 3.5 C12.46236328 3.45939453 12.46236328 3.45939453 13.69921875 3.41796875 C14.62154297 3.36576172 14.62154297 3.36576172 15.5625 3.3125 C15.91183594 4.44429688 16.26117188 5.57609375 16.62109375 6.7421875 C17.08063895 8.22398631 17.54027931 9.70575562 18 11.1875 C18.23009766 11.93386719 18.46019531 12.68023437 18.69726562 13.44921875 C19.91629647 17.46341601 19.91629647 17.46341601 21.5625 21.3125 C23.8725 15.3725 26.1825 9.4325 28.5625 3.3125 C31.2025 3.3125 33.8425 3.3125 36.5625 3.3125 C34.47490446 9.82669199 31.81703593 16.07872662 29.13208008 22.36279297 C28.54355439 23.74704188 27.96087123 25.13378924 27.3840332 26.52294922 C26.54414709 28.54469383 25.68628078 30.55794032 24.82421875 32.5703125 C24.06564575 34.36686279 24.06564575 34.36686279 23.29174805 36.19970703 C21.42489441 39.56020171 19.78256861 41.24775679 16.5625 43.3125 C13.30078125 43.703125 13.30078125 43.703125 9.875 43.5625 C8.16763672 43.50835937 8.16763672 43.50835937 6.42578125 43.453125 C5.48089844 43.40671875 4.53601563 43.3603125 3.5625 43.3125 C2.9025 43.3125 2.2425 43.3125 1.5625 43.3125 C0.9025 43.9725 0.2425 44.6325 -0.4375 45.3125 C-3.31847939 45.32128347 -6.07349249 45.21868038 -8.9375 45 C-10.11505859 44.92749023 -10.11505859 44.92749023 -11.31640625 44.85351562 C-17.1453218 44.4585891 -17.1453218 44.4585891 -19.4375 43.3125 C-18.4475 40.3425 -18.4475 40.3425 -17.4375 37.3125 C-15.45182292 37.44270833 -13.46614583 37.57291667 -11.48046875 37.703125 C-9.31594625 37.48571984 -9.31594625 37.48571984 -7.83740234 35.73193359 C-5.94331277 32.45840243 -6.03619423 29.98134284 -5.99609375 26.2109375 C-5.98288589 25.53326324 -5.96967804 24.85558899 -5.95606995 24.15737915 C-5.91529044 22.00071018 -5.89352816 19.84446657 -5.875 17.6875 C-5.85121737 15.52352053 -5.82314096 13.35994188 -5.78321838 11.19619751 C-5.74772148 9.23822183 -5.72785503 7.27998148 -5.70874023 5.32177734 C-5.3102425 0.90064045 -4.37888284 0.39808026 0 0 Z " fill="#0C5BA2" transform="translate(139.4375,96.6875)"/>
<path d="M0 0 C3.67673854 3.17988198 4.83255478 5.29205876 5.3125 10.1875 C4.8600443 15.70745957 3.00687548 20.11475334 -1.0625 23.9375 C-5.8460043 26.56071204 -10.68136943 26.58911509 -16 26 C-20.83831756 23.6704397 -23.6006196 20.79876079 -26 16 C-26.81489668 9.58268865 -25.70890694 6.25428483 -22 1 C-15.78554953 -4.82604731 -6.90215994 -4.3922836 0 0 Z " fill="#E5F4FB" transform="translate(202,102)"/>
<path d="M0 0 C2.31 0 4.62 0 7 0 C8.98 5.94 10.96 11.88 13 18 C14.93272435 12.45141413 14.93272435 12.45141413 16.85913086 6.90063477 C17.22083374 5.86894165 17.22083374 5.86894165 17.58984375 4.81640625 C17.83597412 4.10943604 18.08210449 3.40246582 18.33569336 2.67407227 C19 1 19 1 20 0 C22.64 0 25.28 0 28 0 C30.475 8.91 30.475 8.91 33 18 C35.31 12.06 37.62 6.12 40 0 C42.31 0 44.62 0 47 0 C46.38631398 3.59375821 45.41145342 6.70219484 43.96875 10.046875 C43.57042969 10.97371094 43.17210937 11.90054688 42.76171875 12.85546875 C42.34535156 13.81066406 41.92898437 14.76585938 41.5 15.75 C40.87544922 17.20599609 40.87544922 17.20599609 40.23828125 18.69140625 C37.14043257 25.85956743 37.14043257 25.85956743 36 27 C33.32941149 27.14115161 30.67567762 27.04247107 28 27 C27.32678716 24.75194998 26.66165877 22.50147776 26 20.25 C25.62875 18.99703125 25.2575 17.7440625 24.875 16.453125 C24 13 24 13 24 9 C23.34 9 22.68 9 22 9 C21.90203125 9.54527344 21.8040625 10.09054688 21.703125 10.65234375 C20.54000257 16.51809047 18.61460097 21.63118344 16 27 C13.36 27 10.72 27 8 27 C6.65649992 23.25356427 5.32698339 19.50231451 4 15.75 C3.6184375 14.68652344 3.236875 13.62304688 2.84375 12.52734375 C2.4828125 11.50253906 2.121875 10.47773437 1.75 9.421875 C1.41484375 8.47924805 1.0796875 7.53662109 0.734375 6.56542969 C0 4 0 4 0 0 Z " fill="#EDF8FC" transform="translate(55,100)"/>
<path d="M0 0 C2.64 0 5.28 0 8 0 C8.34933594 1.13179688 8.69867188 2.26359375 9.05859375 3.4296875 C9.51813895 4.91148631 9.97777931 6.39325562 10.4375 7.875 C10.66759766 8.62136719 10.89769531 9.36773437 11.13476562 10.13671875 C12.35379647 14.15091601 12.35379647 14.15091601 14 18 C16.31 12.06 18.62 6.12 21 0 C23.64 0 26.28 0 29 0 C26.91240446 6.51419199 24.25453593 12.76622662 21.56958008 19.05029297 C20.98105439 20.43454188 20.39837123 21.82128924 19.8215332 23.21044922 C18.98164709 25.23219383 18.12378078 27.24544032 17.26171875 29.2578125 C16.50314575 31.05436279 16.50314575 31.05436279 15.72924805 32.88720703 C13.86604926 36.24112268 12.20382398 37.92664023 9 40 C6.10546875 40.390625 6.10546875 40.390625 3.1875 40.25 C2.21167969 40.21390625 1.23585937 40.1778125 0.23046875 40.140625 C-0.50558594 40.09421875 -1.24164063 40.0478125 -2 40 C-2 38.35 -2 36.7 -2 35 C-0.906875 34.9175 0.18625 34.835 1.3125 34.75 C4.93412055 34.30988518 4.93412055 34.30988518 7 32.375 C9.44731424 26.56262869 5.98637824 19.52493435 4 13.875 C0.71127058 4.42765935 0.71127058 4.42765935 0 0 Z " fill="#EFF9FC" transform="translate(147,100)"/>
<path d="M0 0 C1 1 1 1 1 7 C-2.96 7 -6.92 7 -11 7 C-11.33 8.32 -11.66 9.64 -12 11 C-9.80807709 13.54545886 -7.42988967 15.63118322 -4.8828125 17.81640625 C1.53885946 23.65532862 1.53885946 23.65532862 1.8125 28.1875 C0.85415783 32.68433633 -0.38854872 34.22842111 -4 37 C-7.06957098 38.02319033 -9.22440323 38.13371939 -12.4375 38.125 C-13.85869141 38.12886719 -13.85869141 38.12886719 -15.30859375 38.1328125 C-17.70140459 38.01473475 -19.71336153 37.68112635 -22 37 C-22.33 34.69 -22.66 32.38 -23 30 C-22.08476562 30.08378906 -21.16953125 30.16757813 -20.2265625 30.25390625 C-19.03804687 30.35574219 -17.84953125 30.45757812 -16.625 30.5625 C-15.44164062 30.66691406 -14.25828125 30.77132812 -13.0390625 30.87890625 C-10.08101369 31.24153596 -10.08101369 31.24153596 -8 30 C-8.32279799 26.79428203 -8.70866987 25.30641894 -10.9609375 22.9375 C-11.75757813 22.298125 -12.55421875 21.65875 -13.375 21 C-17.8855367 17.35630911 -20.6233012 14.34390364 -21.5625 8.5 C-20.98469971 4.90479817 -20.29948562 3.07076605 -17.328125 0.87109375 C-11.97244662 -1.13279262 -5.62776509 -0.48575038 0 0 Z " fill="#E9F5FB" transform="translate(51,90)"/>
<path d="M0 0 C2.3125 1.625 2.3125 1.625 3.3125 3.625 C3.73255332 11.32185935 3.15559978 18.97688058 2.3125 26.625 C-0.3275 26.625 -2.9675 26.625 -5.6875 26.625 C-5.6875 22.335 -5.6875 18.045 -5.6875 13.625 C-8.9875 14.945 -12.2875 16.265 -15.6875 17.625 C-15.3575 19.275 -15.0275 20.925 -14.6875 22.625 C-12.7075 22.955 -10.7275 23.285 -8.6875 23.625 C-8.6875 24.945 -8.6875 26.265 -8.6875 27.625 C-17.46092419 28.2382879 -17.46092419 28.2382879 -21.8125 26.0625 C-23.6875 23.625 -23.6875 23.625 -24.25 20.125 C-23.6875 16.625 -23.6875 16.625 -22.1875 14.375 C-18.88000729 12.0597551 -15.50776064 10.86182768 -11.6875 9.625 C-10.5325 9.233125 -9.3775 8.84125 -8.1875 8.4375 C-7.3625 8.169375 -6.5375 7.90125 -5.6875 7.625 C-5.6875 6.635 -5.6875 5.645 -5.6875 4.625 C-7.43741334 4.59784617 -9.18744945 4.57853449 -10.9375 4.5625 C-11.91203125 4.55089844 -12.8865625 4.53929688 -13.890625 4.52734375 C-16.34508678 4.61304423 -18.34918914 4.91793934 -20.6875 5.625 C-20.3575 3.645 -20.0275 1.665 -19.6875 -0.375 C-13.31654069 -2.26494965 -6.20371493 -2.31324964 0 0 Z " fill="#E9F5FC" transform="translate(125.6875,100.375)"/>
<path d="M0 0 C2.64 0 5.28 0 8 0 C8.26951544 34.18285045 8.26951544 34.18285045 5.40625 38.28125 C2.08613887 40.65275795 -0.21651367 40.39938838 -4.25 40.25 C-5.51328125 40.21390625 -6.7765625 40.1778125 -8.078125 40.140625 C-9.04234375 40.09421875 -10.0065625 40.0478125 -11 40 C-11 38.02 -11 36.04 -11 34 C-9.906875 34.0825 -8.81375 34.165 -7.6875 34.25 C-4.06502186 34.39354795 -4.06502186 34.39354795 -2.30151367 32.41894531 C-0.56660572 29.19450937 -0.56569889 26.7009874 -0.48828125 23.046875 C-0.47033005 22.38665344 -0.45237885 21.72643188 -0.43388367 21.04620361 C-0.37991191 18.94753311 -0.34592957 16.84908823 -0.3125 14.75 C-0.27931505 13.32288536 -0.24482429 11.89580044 -0.20898438 10.46875 C-0.1241953 6.97938348 -0.05732112 3.48993809 0 0 Z " fill="#EBF5FA" transform="translate(134,100)"/>
<path d="M0 0 C1.4540625 0.0309375 1.4540625 0.0309375 2.9375 0.0625 C2.9375 2.0425 2.9375 4.0225 2.9375 6.0625 C5.2475 6.0625 7.5575 6.0625 9.9375 6.0625 C9.9375 7.7125 9.9375 9.3625 9.9375 11.0625 C7.6275 11.0625 5.3175 11.0625 2.9375 11.0625 C3.2675 16.3425 3.5975 21.6225 3.9375 27.0625 C5.5875 27.3925 7.2375 27.7225 8.9375 28.0625 C8.980221 29.72861905 8.97813832 31.39632885 8.9375 33.0625 C7.27983202 34.72016798 5.33403595 34.27299503 3.0625 34.3125 C2.17820313 34.33828125 1.29390625 34.3640625 0.3828125 34.390625 C-2.58611721 33.99223827 -3.25754209 33.40381407 -5.0625 31.0625 C-5.40307617 28.88598633 -5.40307617 28.88598633 -5.35546875 26.39453125 C-5.34580078 25.50185547 -5.33613281 24.60917969 -5.32617188 23.68945312 C-5.30103516 22.76068359 -5.27589844 21.83191406 -5.25 20.875 C-5.22969727 19.46444336 -5.22969727 19.46444336 -5.20898438 18.02539062 C-5.17363096 15.70384962 -5.12428674 13.38346347 -5.0625 11.0625 C-6.0525 11.0625 -7.0425 11.0625 -8.0625 11.0625 C-8.0625 9.4125 -8.0625 7.7625 -8.0625 6.0625 C-6.7425 6.0625 -5.4225 6.0625 -4.0625 6.0625 C-4.083125 5.258125 -4.10375 4.45375 -4.125 3.625 C-4.03366838 -0.11959638 -3.80090148 0.07756942 0 0 Z " fill="#EEF6FA" transform="translate(217.0625,93.9375)"/>
<path d="M0 0 C0.66 0.33 1.32 0.66 2 1 C2.33 1.99 2.66 2.98 3 4 C3.66 4 4.32 4 5 4 C4.67 5.98 4.34 7.96 4 10 C4.54140625 9.67257813 5.0828125 9.34515625 5.640625 9.0078125 C8.50719067 7.78335233 10.6452987 7.80107854 13.75 7.875 C14.73484375 7.89304687 15.7196875 7.91109375 16.734375 7.9296875 C17.85585937 7.96449219 17.85585937 7.96449219 19 8 C19.625 9.875 19.625 9.875 20 12 C17.57194991 14.42805009 15.93253196 14.68420123 12.625 15.5 C7.6040456 16.73093942 7.6040456 16.73093942 3 19 C1.23272142 22.0334467 1.23272142 22.0334467 0 25 C-1.32 24.67 -2.64 24.34 -4 24 C-4.4021875 25.2065625 -4.4021875 25.2065625 -4.8125 26.4375 C-5.204375 27.283125 -5.59625 28.12875 -6 29 C-6.99 29.33 -7.98 29.66 -9 30 C-6.70175036 20.89455379 -2.8597477 12.5231689 1 4 C-1.31 4 -3.62 4 -6 4 C-6.19335938 4.68707031 -6.38671875 5.37414062 -6.5859375 6.08203125 C-6.84632812 6.98308594 -7.10671875 7.88414063 -7.375 8.8125 C-7.63023438 9.70582031 -7.88546875 10.59914063 -8.1484375 11.51953125 C-9 14 -9 14 -11 17 C-11.6132879 8.22657581 -11.6132879 8.22657581 -9.4375 3.875 C-6.18515971 1.37319977 -4.0000237 1.61538234 0 2 C0 1.34 0 0.68 0 0 Z " fill="#0E5798" transform="translate(101,96)"/>
<path d="M0 0 C3.9375 0.5625 3.9375 0.5625 5.9375 2.0625 C7.35682482 5.61081205 7.57919735 8.83770501 6.9375 12.5625 C5.4375 15.5625 5.4375 15.5625 2.9375 17.5625 C-0.07397729 18.24720208 -1.8878989 18.01601444 -5.0625 17.5625 C-7.0625 16.0625 -7.0625 16.0625 -8.0625 13.5625 C-8.57221845 8.97503398 -8.62125722 6.68001444 -6.5625 2.5625 C-3.95187354 0.47399883 -3.19571611 0.1824442 0 0 Z " fill="#0C5BA6" transform="translate(192.0625,104.4375)"/>
<path d="M0 0 C2.97 0 5.94 0 9 0 C9 0.33 9 0.66 9 1 C6.69 1 4.38 1 2 1 C2 2.98 2 4.96 2 7 C2.61488281 7 3.22976562 7 3.86328125 7 C7.2421875 7 10.62109375 7 14 7 C15.38123963 5.03277992 16.71488126 3.03131672 18 1 C20.95664519 -0.4783226 23.74229737 -0.06032783 27 0 C27 0.33 27 0.66 27 1 C25.35 1 23.7 1 22 1 C21.34 2.65 20.68 4.3 20 6 C19.01 5.67 18.02 5.34 17 5 C17.18464366 9.34184202 17.18464366 9.34184202 19 13 C20.34747084 13.23075082 21.70377565 13.41153063 23.0625 13.5625 C24.361875 13.706875 25.66125 13.85125 27 14 C26.67 14.66 26.34 15.32 26 16 C22.7 15.67 19.4 15.34 16 15 C15.67 14.01 15.34 13.02 15 12 C11.88214887 12.64644661 11.88214887 12.64644661 11 15 C7.57067929 16.71466036 3.78283935 16.05404056 0 16 C0 10.72 0 5.44 0 0 Z " fill="#0757A4" transform="translate(44,151)"/>
<path d="M0 0 C-0.66 1.65 -1.32 3.3 -2 5 C-1.01 5.66 -0.02 6.32 1 7 C1.375 10.5 1.375 10.5 1 14 C-2.51253146 16.34168764 -3.86469356 16.49623677 -8 16 C-10.875 14.5 -10.875 14.5 -13 12 C-13.93607889 8.02776959 -13.59263037 5.03066151 -11.5625 1.5 C-7.78106272 -0.71352426 -4.2792407 -0.32917236 0 0 Z " fill="#2A78BD" transform="translate(188,151)"/>
<path d="M0 0 C2.3125 1.625 2.3125 1.625 3.3125 3.625 C3.73255332 11.32185935 3.15559978 18.97688058 2.3125 26.625 C-0.3275 26.625 -2.9675 26.625 -5.6875 26.625 C-5.3575 25.635 -5.0275 24.645 -4.6875 23.625 C-4.6875 24.285 -4.6875 24.945 -4.6875 25.625 C-2.7075 25.625 -0.7275 25.625 1.3125 25.625 C1.3125 18.365 1.3125 11.105 1.3125 3.625 C0.3225 3.955 -0.6675 4.285 -1.6875 4.625 C-2.0175 5.615 -2.3475 6.605 -2.6875 7.625 C-3.3475 7.625 -4.0075 7.625 -4.6875 7.625 C-5.0175 6.635 -5.3475 5.645 -5.6875 4.625 C-7.43741334 4.59784617 -9.18744945 4.57853449 -10.9375 4.5625 C-11.91203125 4.55089844 -12.8865625 4.53929688 -13.890625 4.52734375 C-16.34508678 4.61304423 -18.34918914 4.91793934 -20.6875 5.625 C-20.3575 3.645 -20.0275 1.665 -19.6875 -0.375 C-13.31654069 -2.26494965 -6.20371493 -2.31324964 0 0 Z " fill="#D2EBF9" transform="translate(125.6875,100.375)"/>
<path d="M0 0 C1.98 0.495 1.98 0.495 4 1 C4 1.99 4 2.98 4 4 C4.66 4 5.32 4 6 4 C6.33 3.01 6.66 2.02 7 1 C7 1.99 7 2.98 7 4 C7.99 4 8.98 4 10 4 C10.01981934 4.59538574 10.03963867 5.19077148 10.06005859 5.80419922 C10.15516126 8.49492153 10.26489842 11.18485148 10.375 13.875 C10.4059375 14.81214844 10.436875 15.74929687 10.46875 16.71484375 C10.50742188 17.61074219 10.54609375 18.50664063 10.5859375 19.4296875 C10.6173584 20.25710449 10.6487793 21.08452148 10.68115234 21.93701172 C10.82599137 24.21986085 10.82599137 24.21986085 13 26 C15.43252661 26.46162427 15.43252661 26.46162427 18.125 26.625 C19.03507812 26.69976562 19.94515625 26.77453125 20.8828125 26.8515625 C21.93082031 26.92503906 21.93082031 26.92503906 23 27 C23 27.33 23 27.66 23 28 C21.06280622 28.05406122 19.12518079 28.09282025 17.1875 28.125 C16.10855469 28.14820313 15.02960938 28.17140625 13.91796875 28.1953125 C11 28 11 28 8 26 C8.33 23.36 8.66 20.72 9 18 C8.34 18.33 7.68 18.66 7 19 C6.67 19.99 6.34 20.98 6 22 C5.34 22 4.68 22 4 22 C4 22.99 4 23.98 4 25 C2.35 25 0.7 25 -1 25 C-0.6390625 24.35933594 -0.278125 23.71867187 0.09375 23.05859375 C2.8561725 17.90974514 4.93993105 13.99206044 4 8 C2.64599355 5.27018168 2.64599355 5.27018168 1 3 C0.67 2.01 0.34 1.02 0 0 Z " fill="#0E56A1" transform="translate(202,101)"/>
<path d="M0 0 C0.625 1.875 0.625 1.875 1 4 C-3.07605457 8.07605457 -10.09776009 8.90327594 -15.6875 9.1875 C-16.450625 9.125625 -17.21375 9.06375 -18 9 C-18.33 9.66 -18.66 10.32 -19 11 C-20.43697541 8.76470492 -21.10870229 7.5978626 -20.625 4.9375 C-15.56226889 -1.09883325 -7.14442123 -0.35459444 0 0 Z " fill="#1258A0" transform="translate(120,104)"/>
<path d="M0 0 C0.02705729 1.77074917 0.04642195 3.54161711 0.0625 5.3125 C0.07410156 6.29863281 0.08570312 7.28476563 0.09765625 8.30078125 C0 11 0 11 -1 14 C1.64 14 4.28 14 7 14 C7 14.33 7 14.66 7 15 C1.06 15.495 1.06 15.495 -5 16 C-4.67 14.35 -4.34 12.7 -4 11 C-4.94875 11.04125 -5.8975 11.0825 -6.875 11.125 C-10 11 -10 11 -12 9 C-11.9375 6.51953125 -11.9375 6.51953125 -11 4 C-8.75 2.63671875 -8.75 2.63671875 -6 1.6875 C-5.0925 1.36136719 -4.185 1.03523438 -3.25 0.69921875 C-1 0 -1 0 0 0 Z " fill="#2B68A7" transform="translate(121,113)"/>
<path d="M0 0 C0.99 0.33 1.98 0.66 3 1 C2.67 1.99 2.34 2.98 2 4 C1.77548542 6.22574335 1.59217122 8.45581519 1.4375 10.6875 C1.35371094 11.86699219 1.26992187 13.04648438 1.18359375 14.26171875 C1.12300781 15.16535156 1.06242188 16.06898437 1 17 C1.639375 17.103125 2.27875 17.20625 2.9375 17.3125 C3.618125 17.539375 4.29875 17.76625 5 18 C5.33 18.99 5.66 19.98 6 21 C6.99 21.33 7.98 21.66 9 22 C8.67 22.66 8.34 23.32 8 24 C4.36804503 24.33785628 2.41176773 24.22875985 -0.8125 22.4375 C-3.60626274 19.32445009 -3.84446201 17.12175661 -4 13 C-3.67 12.67 -3.34 12.34 -3 12 C-2.6301145 10.17369035 -2.30326536 8.33854626 -2 6.5 C-1.11111111 1.11111111 -1.11111111 1.11111111 0 0 Z " fill="#F8FDFA" transform="translate(182,103)"/>
<path d="M0 0 C2.31 0 4.62 0 7 0 C6.36495834 4.13159633 5.01303002 7.49726486 3.1875 11.25 C2.68605469 12.30703125 2.18460937 13.3640625 1.66796875 14.453125 C0 17 0 17 -2.19921875 17.859375 C-3.09060547 17.92898437 -3.09060547 17.92898437 -4 18 C-4.51137226 11.09647445 -2.86964374 6.25172386 0 0 Z " fill="#E9F4FB" transform="translate(95,100)"/>
<path d="M0 0 C2.47923801 -0.02685095 4.9581884 -0.04676547 7.4375 -0.0625 C8.14455078 -0.07087891 8.85160156 -0.07925781 9.58007812 -0.08789062 C11.38693559 -0.09653588 13.19387603 -0.05220011 15 0 C16 1 16 1 16.0625 4.0625 C16.041875 5.031875 16.02125 6.00125 16 7 C14.73542969 6.98259766 14.73542969 6.98259766 13.4453125 6.96484375 C12.34960938 6.95582031 11.25390625 6.94679688 10.125 6.9375 C9.03445312 6.92589844 7.94390625 6.91429688 6.8203125 6.90234375 C4.04822454 6.80255697 4.04822454 6.80255697 2 8 C2 7.34 2 6.68 2 6 C-1.465 7.485 -1.465 7.485 -5 9 C-5 7 -5 7 -3.625 5.375 C-2 4 -2 4 0 4 C0 2.68 0 1.36 0 0 Z " fill="#F7FCFE" transform="translate(36,90)"/>
<path d="M0 0 C0.33 0 0.66 0 1 0 C1.07419134 4.21749219 1.1286204 8.43463811 1.16479492 12.65258789 C1.17987589 14.08722552 1.2003438 15.52181708 1.22631836 16.95629883 C1.26273437 19.01915859 1.27973243 21.08140858 1.29296875 23.14453125 C1.3086792 24.38565674 1.32438965 25.62678223 1.34057617 26.90551758 C1 30 1 30 -0.51831055 31.9284668 C-1.25174683 32.45887573 -1.25174683 32.45887573 -2 33 C-2 32.01 -2 31.02 -2 30 C-5.63 29.67 -9.26 29.34 -13 29 C-13 28.67 -13 28.34 -13 28 C-10.36 28 -7.72 28 -5 28 C-5 24.04 -5 20.08 -5 16 C-3.35 16 -1.7 16 0 16 C0 10.72 0 5.44 0 0 Z " fill="#115B9F" transform="translate(133,100)"/>
<path d="M0 0 C1.32 0 2.64 0 4 0 C4 7.26 4 14.52 4 22 C2.02 22 0.04 22 -2 22 C-2 20.68 -2 19.36 -2 18 C-1.34 18 -0.68 18 0 18 C-0.16757813 17.10796875 -0.33515625 16.2159375 -0.5078125 15.296875 C-0.71148437 14.12640625 -0.91515625 12.9559375 -1.125 11.75 C-1.43824219 10.00976562 -1.43824219 10.00976562 -1.7578125 8.234375 C-2.00512616 4.93154091 -1.74783767 3.7188586 0 1 C0 0.67 0 0.34 0 0 Z " fill="#FBFEFB" transform="translate(123,104)"/>
<path d="M0 0 C1.32 0 2.64 0 4 0 C6.46301423 2.46301423 6.76766521 4.27360036 7.625 7.625 C7.88539062 8.62789062 8.14578125 9.63078125 8.4140625 10.6640625 C8.60742188 11.43492188 8.80078125 12.20578125 9 13 C8.01 13 7.02 13 6 13 C5.67 12.01 5.34 11.02 5 10 C2.23776722 12.76223278 2.42143709 15.20706617 2 19 C1.34 18.67 0.68 18.34 0 18 C0.0825 16.783125 0.165 15.56625 0.25 14.3125 C0.27471684 10.83360474 0.04111557 10.06167336 -2 7 C-2.66 6.34 -3.32 5.68 -4 5 C-2.25 2.5 -2.25 2.5 0 0 Z " fill="#125DA0" transform="translate(51,104)"/>
<path d="M0 0 C-1.26953125 1.46484375 -2.5390625 2.9296875 -3.80859375 4.39453125 C-5.20871231 6.10712971 -5.20871231 6.10712971 -6 9 C-6.66 9 -7.32 9 -8 9 C-8 9.99 -8 10.98 -8 12 C-8.98885897 13.01101827 -9.99022076 14.00987583 -11 15 C-11.98628417 17.03077684 -11.98628417 17.03077684 -12.6875 19.1875 C-13.06455078 20.26064453 -13.06455078 20.26064453 -13.44921875 21.35546875 C-13.63097656 21.89816406 -13.81273437 22.44085938 -14 23 C-14.99 23 -15.98 23 -17 23 C-15.30343406 17.2117162 -13.1088301 11.89232086 -10.4375 6.5 C-10.13255615 5.87657715 -9.8276123 5.2531543 -9.51342773 4.61083984 C-6.83908859 -0.68515652 -5.72537661 -1.35601025 0 0 Z " fill="#2160A0" transform="translate(183,101)"/>
<path d="M0 0 C0.33 0 0.66 0 1 0 C1 4.62 1 9.24 1 14 C3.31 14 5.62 14 8 14 C8 14.66 8 15.32 8 16 C3.05 16.495 3.05 16.495 -2 17 C-2.05418326 14.91695462 -2.09287551 12.83350232 -2.125 10.75 C-2.14820313 9.58984375 -2.17140625 8.4296875 -2.1953125 7.234375 C-2.0103949 4.17213954 -1.60823023 2.55797249 0 0 Z " fill="#468BCE" transform="translate(140,151)"/>
<path d="M0 0 C0.66 0.33 1.32 0.66 2 1 C-0.31 6.28 -2.62 11.56 -5 17 C-5.97608217 14.07175348 -6.08226668 12.04386724 -6 9 C-6.99 8.67 -7.98 8.34 -9 8 C-8.01 5.69 -7.02 3.38 -6 1 C-4.68 1.66 -3.36 2.32 -2 3 C-1.34 2.01 -0.68 1.02 0 0 Z " fill="#DEEFF7" transform="translate(169,112)"/>
<path d="M0 0 C0 0.33 0 0.66 0 1 C-1.65 1 -3.3 1 -5 1 C-5.66 2.65 -6.32 4.3 -7 6 C-7.99 5.67 -8.98 5.34 -10 5 C-9.81535634 9.34184202 -9.81535634 9.34184202 -8 13 C-6.65252916 13.23075082 -5.29622435 13.41153063 -3.9375 13.5625 C-2.638125 13.706875 -1.33875 13.85125 0 14 C-0.33 14.66 -0.66 15.32 -1 16 C-4.3 15.67 -7.6 15.34 -11 15 C-12.57704918 5.90163934 -12.57704918 5.90163934 -10 1.875 C-6.38293839 -0.38566351 -4.19120984 -0.41090293 0 0 Z " fill="#58A9E4" transform="translate(71,151)"/>
<path d="M0 0 C2.86724686 0.57344937 3.8614515 0.8614515 6 3 C6.26991906 5.68839385 6.08737357 8.29141936 6 11 C4.68 11.33 3.36 11.66 2 12 C0.14404895 8.53555803 -1.33300647 5.7126047 -0.5625 1.75 C-0.376875 1.1725 -0.19125 0.595 0 0 Z " fill="#F2FBFD" transform="translate(46,111)"/>
<path d="M0 0 C-0.99 0.495 -0.99 0.495 -2 1 C-2 1.99 -2 2.98 -2 4 C-1.34 4.33 -0.68 4.66 0 5 C-0.969375 5.12375 -1.93875 5.2475 -2.9375 5.375 C-4.4534375 5.684375 -4.4534375 5.684375 -6 6 C-6.33 6.66 -6.66 7.32 -7 8 C-7.99 8 -8.98 8 -10 8 C-10.33 8.66 -10.66 9.32 -11 10 C-12.125 8.25 -12.125 8.25 -13 6 C-12.5 3.875 -12.5 3.875 -11 2 C-7.24736275 0.33216122 -4.08773982 -0.24045528 0 0 Z " fill="#0459A9" transform="translate(112,105)"/>
<path d="M0 0 C2.97 0 5.94 0 9 0 C9 0.33 9 0.66 9 1 C6.69 1 4.38 1 2 1 C2 2.98 2 4.96 2 7 C3.98 7 5.96 7 8 7 C8 7.33 8 7.66 8 8 C6.02 8 4.04 8 2 8 C2 9.98 2 11.96 2 14 C4.31 14 6.62 14 9 14 C9 14.66 9 15.32 9 16 C6.03 16 3.06 16 0 16 C0 10.72 0 5.44 0 0 Z " fill="#69ACE7" transform="translate(44,151)"/>
<path d="M0 0 C0.66 0.99 1.32 1.98 2 3 C1.58447266 4.90112305 1.58447266 4.90112305 0.6640625 7.01171875 C0.34179688 7.76904297 0.01953125 8.52636719 -0.3125 9.30664062 C-0.663125 10.09232422 -1.01375 10.87800781 -1.375 11.6875 C-1.71789062 12.48478516 -2.06078125 13.28207031 -2.4140625 14.10351562 C-3.26376335 16.07434954 -4.13031385 18.0379032 -5 20 C-7.40039042 15.32024725 -9 11.32695729 -9 6 C-7 7 -7 7 -5.875 10.0625 C-5.58625 11.031875 -5.2975 12.00125 -5 13 C-3.77105172 10.10319335 -2.79726165 7.28445286 -1.9375 4.25 C-1 1 -1 1 0 0 Z " fill="#175A9A" transform="translate(166,100)"/>
<path d="M0 0 C0.33 0 0.66 0 1 0 C1.0809723 2.43816585 1.14046972 4.87364384 1.1875 7.3125 C1.21263672 8.00279297 1.23777344 8.69308594 1.26367188 9.40429688 C1.33815529 14.54365262 1.33815529 14.54365262 -0.27197266 16.71655273 C-3.30393901 18.96846671 -6.97797248 18.06531943 -10.5625 17.75 C-11.34302734 17.69714844 -12.12355469 17.64429688 -12.92773438 17.58984375 C-18.67291983 17.16354008 -18.67291983 17.16354008 -21 16 C-20.34 14.02 -19.68 12.04 -19 10 C-18.67 10 -18.34 10 -18 10 C-18 11.98 -18 13.96 -18 16 C-10.08 15.505 -10.08 15.505 -2 15 C-0.9458482 11.83754459 -0.68724328 9.13051782 -0.4375 5.8125 C-0.35371094 4.72582031 -0.26992187 3.63914062 -0.18359375 2.51953125 C-0.09271484 1.27236328 -0.09271484 1.27236328 0 0 Z " fill="#326DA7" transform="translate(141,124)"/>
<path d="M0 0 C3.79620155 1.26540052 4.48678188 2.78218431 6.6875 6.0625 C7.31011719 6.98160156 7.93273437 7.90070313 8.57421875 8.84765625 C9.04472656 9.55792969 9.51523438 10.26820313 10 11 C9.67 11.66 9.34 12.32 9 13 C7.35 11.35 5.7 9.7 4 8 C3.01 8.33 2.02 8.66 1 9 C1 10.98 1 12.96 1 15 C0.67 15 0.34 15 0 15 C0 10.05 0 5.1 0 0 Z " fill="#63A4DA" transform="translate(98,151)"/>
<path d="M0 0 C1.32 0 2.64 0 4 0 C4 0.66 4 1.32 4 2 C4.66 2 5.32 2 6 2 C8.42857143 10.42857143 8.42857143 10.42857143 7 15 C7.99 15 8.98 15 10 15 C9.34 16.98 8.68 18.96 8 21 C5.55642096 16.74555435 4.64440376 12.0331655 3.5 7.3125 C2.50939296 3.2580738 2.50939296 3.2580738 0 0 Z " fill="#0D5397" transform="translate(80,98)"/>
<path d="M0 0 C0.98612849 3.94451397 0.91655666 5.43186434 0.0625 9.25 C-0.13214844 10.14203125 -0.32679687 11.0340625 -0.52734375 11.953125 C-0.68332031 12.62859375 -0.83929688 13.3040625 -1 14 C-0.34 14 0.32 14 1 14 C0.67 15.98 0.34 17.96 0 20 C-0.33 20 -0.66 20 -1 20 C-1 18.35 -1 16.7 -1 15 C-2.65 14.67 -4.3 14.34 -6 14 C-6.98120464 10.94736336 -6.98120464 9.05263664 -6 6 C-5.34 7.98 -4.68 9.96 -4 12 C-2.68 8.04 -1.36 4.08 0 0 Z " fill="#D5EDF7" transform="translate(72,106)"/>
<path d="M0 0 C0.99 0.33 1.98 0.66 3 1 C2.835 1.763125 2.67 2.52625 2.5 3.3125 C1.90854604 6.03596236 1.90854604 6.03596236 2 9 C1.67 9.66 1.34 10.32 1 11 C-0.65 11 -2.3 11 -4 11 C-4 8.69 -4 6.38 -4 4 C-3.34 4 -2.68 4 -2 4 C-2 3.01 -2 2.02 -2 1 C-1.34 0.67 -0.68 0.34 0 0 Z " fill="#1055A5" transform="translate(225,89)"/>
<path d="M0 0 C0.66 0 1.32 0 2 0 C2.33 1.98 2.66 3.96 3 6 C1.3125 7.625 1.3125 7.625 -1 9 C-3.475 8.01 -3.475 8.01 -6 7 C-6 11.62 -6 16.24 -6 21 C-6.33 21 -6.66 21 -7 21 C-7 15.72 -7 10.44 -7 5 C-4.69 5 -2.38 5 0 5 C0 3.35 0 1.7 0 0 Z " fill="#1C5A95" transform="translate(227,100)"/>
<path d="M0 0 C2.31 0 4.62 0 7 0 C7 0.99 7 1.98 7 3 C7.99 3.33 8.98 3.66 10 4 C9.6875 5.875 9.6875 5.875 9 8 C8.01 8.66 7.02 9.32 6 10 C5.30062468 11.31647119 4.63270867 12.65022151 4 14 C3.34 14.66 2.68 15.32 2 16 C0.67169385 12.01508155 1.76795596 10.59951452 3.4375 6.8125 C3.91058594 5.72582031 4.38367188 4.63914062 4.87109375 3.51953125 C5.24363281 2.68808594 5.61617188 1.85664062 6 1 C4.02 1 2.04 1 0 1 C0 0.67 0 0.34 0 0 Z " fill="#1B62A4" transform="translate(96,99)"/>
<path d="M0 0 C-2 2 -2 2 -5.125 2.125 C-6.07375 2.08375 -7.0225 2.0425 -8 2 C-7.67 4.31 -7.34 6.62 -7 9 C-8.32 8.67 -9.64 8.34 -11 8 C-11.66 9.32 -12.32 10.64 -13 12 C-13.66 12 -14.32 12 -15 12 C-14.38722388 9.03824877 -13.74627478 7.61941217 -12 5 C-11.83286431 2.37468476 -11.83286431 2.37468476 -12 0 C-11.67 0.66 -11.34 1.32 -11 2 C-10.37351562 1.77183594 -9.74703125 1.54367188 -9.1015625 1.30859375 C-7.87566406 0.87740234 -7.87566406 0.87740234 -6.625 0.4375 C-5.40683594 0.00244141 -5.40683594 0.00244141 -4.1640625 -0.44140625 C-2 -1 -2 -1 0 0 Z " fill="#03509A" transform="translate(62,97)"/>
<path d="M0 0 C1.98 0 3.96 0 6 0 C6 0.99 6 1.98 6 3 C10.455 2.505 10.455 2.505 15 2 C15.33 2.99 15.66 3.98 16 5 C15.10796875 4.98839844 14.2159375 4.97679688 13.296875 4.96484375 C12.12640625 4.95582031 10.9559375 4.94679688 9.75 4.9375 C8.58984375 4.92589844 7.4296875 4.91429688 6.234375 4.90234375 C3.59022872 4.98217908 1.50173909 5.21356222 -1 6 C-0.67 4.02 -0.34 2.04 0 0 Z " fill="#C4E3F3" transform="translate(106,100)"/>
<path d="M0 0 C0.763125 0.20625 1.52625 0.4125 2.3125 0.625 C-0.6575 4.585 -0.6575 4.585 -3.6875 8.625 C-4.6775 8.295 -5.6675 7.965 -6.6875 7.625 C-6.375 4.75 -6.375 4.75 -5.6875 1.625 C-2.6875 -0.375 -2.6875 -0.375 0 0 Z " fill="#135A9C" transform="translate(180.6875,100.375)"/>
<path d="M0 0 C2.47923801 -0.02685095 4.9581884 -0.04676547 7.4375 -0.0625 C8.14455078 -0.07087891 8.85160156 -0.07925781 9.58007812 -0.08789062 C11.38693559 -0.09653588 13.19387603 -0.05220011 15 0 C16 1 16 1 16.0625 4.0625 C16.041875 5.031875 16.02125 6.00125 16 7 C12.7 6.67 9.4 6.34 6 6 C6 5.67 6 5.34 6 5 C8.31 4.34 10.62 3.68 13 3 C13 2.67 13 2.34 13 2 C8.71 1.67 4.42 1.34 0 1 C0 0.67 0 0.34 0 0 Z " fill="#C1DEED" transform="translate(36,90)"/>
<path d="M0 0 C2.31 0 4.62 0 7 0 C6.67 0.66 6.34 1.32 6 2 C5.01 1.67 4.02 1.34 3 1 C3.144375 1.59167969 3.28875 2.18335937 3.4375 2.79296875 C4.40822694 6.92529941 5.27593702 10.7229762 5 15 C2.82813579 12.82813579 2.3206752 11.50023469 1.375 8.625 C1.11460938 7.85414062 0.85421875 7.08328125 0.5859375 6.2890625 C0 4 0 4 0 0 Z " fill="#D5F0FA" transform="translate(55,100)"/>
<path d="M0 0 C0.33 0 0.66 0 1 0 C1.125 6.75 1.125 6.75 0 9 C0.33 9.99 0.66 10.98 1 12 C0.34 12.66 -0.32 13.32 -1 14 C-3.60018816 10.09971775 -3.15085514 6.52565431 -3 2 C-2.01 2 -1.02 2 0 2 C0 1.34 0 0.68 0 0 Z " fill="#F4FEFD" transform="translate(179,108)"/>
<path d="M0 0 C2.31 0 4.62 0 7 0 C7 1.65 7 3.3 7 5 C4.69 5 2.38 5 0 5 C0 3.35 0 1.7 0 0 Z " fill="#E4FAFD" transform="translate(135,90)"/>
<path d="M0 0 C2.64 0 5.28 0 8 0 C8.33 1.98 8.66 3.96 9 6 C8.01 5.67 7.02 5.34 6 5 C5.3125 2.9375 5.3125 2.9375 5 1 C4.34 1 3.68 1 3 1 C3 3.31 3 5.62 3 8 C1.0549 5.08235 0.54723683 3.37462715 0 0 Z " fill="#D7F3FB" transform="translate(147,100)"/>
<path d="M0 0 C0.66 0 1.32 0 2 0 C2 4.95 2 9.9 2 15 C1.01 15 0.02 15 -1 15 C-0.67 10.05 -0.34 5.1 0 0 Z " fill="#60ADE6" transform="translate(109,151)"/>
<path d="M0 0 C0.66 0.33 1.32 0.66 2 1 C2.23290982 3.79491785 2.12196863 5.69914404 1.0625 8.3125 C-2.24572964 11.01923334 -5.88930183 10.31024137 -10 10 C-10 9.67 -10 9.34 -10 9 C-6.535 8.505 -6.535 8.505 -3 8 C-2.01 5.36 -1.02 2.72 0 0 Z " fill="#2A6AA0" transform="translate(74,118)"/>
<path d="M0 0 C0.33 0 0.66 0 1 0 C1.04898438 1.26457031 1.09796875 2.52914062 1.1484375 3.83203125 C1.2234738 5.49220947 1.29902127 7.15236464 1.375 8.8125 C1.4059375 9.64587891 1.436875 10.47925781 1.46875 11.33789062 C1.50742188 12.14033203 1.54609375 12.94277344 1.5859375 13.76953125 C1.6173584 14.50792236 1.6487793 15.24631348 1.68115234 16.00708008 C1.90834614 18.31349588 1.90834614 18.31349588 4 21 C4.99 21.66 5.98 22.32 7 23 C2.25 22.25 2.25 22.25 0 20 C-0.22705078 17.93701172 -0.22705078 17.93701172 -0.1953125 15.4296875 C-0.18886719 14.53378906 -0.18242187 13.63789062 -0.17578125 12.71484375 C-0.15902344 11.77769531 -0.14226562 10.84054688 -0.125 9.875 C-0.11597656 8.93011719 -0.10695312 7.98523438 -0.09765625 7.01171875 C-0.07404522 4.67422708 -0.04111516 2.33723877 0 0 Z " fill="#C3DDEE" transform="translate(212,105)"/>
<path d="M0 0 C0.33 0 0.66 0 1 0 C2.59138085 4.17737474 3.21278058 7.53160785 3 12 C2.01 11.67 1.02 11.34 0 11 C-1.125 3.375 -1.125 3.375 0 0 Z " fill="#FBFBF6" transform="translate(82,107)"/>
<path d="M0 0 C2.31 0.33 4.62 0.66 7 1 C6.34 1.66 5.68 2.32 5 3 C5 3.99 5 4.98 5 6 C2.69 6 0.38 6 -2 6 C-0.68 5.01 0.64 4.02 2 3 C1.34 2.67 0.68 2.34 0 2 C0 1.34 0 0.68 0 0 Z " fill="#D6E7F4" transform="translate(188,122)"/>
<path d="M0 0 C2.01822917 0.06510417 4.03645833 0.13020833 6.0546875 0.1953125 C6.0546875 1.1853125 6.0546875 2.1753125 6.0546875 3.1953125 C4.03645833 3.09765625 2.01822917 3 0 2.90234375 C-0.64195312 2.99902344 -1.28390625 3.09570312 -1.9453125 3.1953125 C-2.6053125 4.1853125 -3.2653125 5.1753125 -3.9453125 6.1953125 C-3.9453125 0.39611571 -3.9453125 0.39611571 0 0 Z " fill="#2061A2" transform="translate(189.9453125,104.8046875)"/>
<path d="M0 0 C2.31 0.33 4.62 0.66 7 1 C7 1.99 7 2.98 7 4 C4.69 4 2.38 4 0 4 C0 2.68 0 1.36 0 0 Z " fill="#045597" transform="translate(110,119)"/>
<path d="M0 0 C0.66 0 1.32 0 2 0 C2.33 2.31 2.66 4.62 3 7 C1.02 7.99 1.02 7.99 -1 9 C-2.25541557 5.23375329 -1.37061958 3.62811066 0 0 Z " fill="#255E95" transform="translate(77,109)"/>
<path d="M0 0 C1.32 0.33 2.64 0.66 4 1 C4 1.99 4 2.98 4 4 C4.66 4 5.32 4 6 4 C6.33 3.01 6.66 2.02 7 1 C7 1.99 7 2.98 7 4 C7.99 4.33 8.98 4.66 10 5 C8 6 6 7 4 8 C2.3372974 5.32521756 1.00016187 3.0004856 0 0 Z " fill="#2C649C" transform="translate(202,101)"/>
<path d="M0 0 C0.33 0.66 0.66 1.32 1 2 C5.455 1.505 5.455 1.505 10 1 C9.67 1.99 9.34 2.98 9 4 C6.03 4 3.06 4 0 4 C0 2.68 0 1.36 0 0 Z " fill="#2E699E" transform="translate(82,125)"/>
<path d="M0 0 C0.99 0.99 1.98 1.98 3 3 C2.67 3.99 2.34 4.98 2 6 C-0.0625 6.6875 -0.0625 6.6875 -2 7 C-2.125 4.625 -2.125 4.625 -2 2 C-1.34 1.34 -0.68 0.68 0 0 Z " fill="#FAFEFC" transform="translate(93,111)"/>
<path d="M0 0 C0.55171875 0.48082031 1.1034375 0.96164063 1.671875 1.45703125 C4.36143493 3.23954161 6.05821418 3.47751409 9.25 3.6875 C10.14203125 3.75324219 11.0340625 3.81898437 11.953125 3.88671875 C12.62859375 3.92410156 13.3040625 3.96148437 14 4 C14 4.33 14 4.66 14 5 C12.06280622 5.05406122 10.12518079 5.09282025 8.1875 5.125 C7.10855469 5.14820313 6.02960938 5.17140625 4.91796875 5.1953125 C2 5 2 5 -1 3 C-0.67 2.01 -0.34 1.02 0 0 Z " fill="#105795" transform="translate(211,124)"/>
<path d="M0 0 C0.66 0 1.32 0 2 0 C2 1.65 2 3.3 2 5 C2.99 5 3.98 5 5 5 C4.34 6.98 3.68 8.96 3 11 C0.87953208 7.46588679 0.46800711 4.05606165 0 0 Z " fill="#206296" transform="translate(85,108)"/>
<path d="M0 0 C1.1875 1.5 1.1875 1.5 2 4 C1.27101296 6.78824238 0.1843275 9.37665092 -1 12 C-1.33 12 -1.66 12 -2 12 C-2.05395478 10.37536158 -2.09277195 8.75021459 -2.125 7.125 C-2.14820312 6.22007813 -2.17140625 5.31515625 -2.1953125 4.3828125 C-2 2 -2 2 0 0 Z " fill="#1D5B9D" transform="translate(92,101)"/>
<path d="M0 0 C2.375 0.25 2.375 0.25 5 1 C6.3125 3.0625 6.3125 3.0625 7 5 C5.68 5 4.36 5 3 5 C3 4.34 3 3.68 3 3 C2.01 3 1.02 3 0 3 C0 2.01 0 1.02 0 0 Z " fill="#0556B1" transform="translate(221,107)"/>
<path d="M0 0 C-0.99 0.495 -0.99 0.495 -2 1 C-2 1.99 -2 2.98 -2 4 C-1.34 4.33 -0.68 4.66 0 5 C-1.98 5 -3.96 5 -6 5 C-5.67 4.01 -5.34 3.02 -5 2 C-5.66 1.67 -6.32 1.34 -7 1 C-4.53721199 -0.231394 -2.7204945 -0.07159196 0 0 Z " fill="#034FA0" transform="translate(112,105)"/>
<path d="M0 0 C0.99 0 1.98 0 3 0 C3 1.65 3 3.3 3 5 C0.69 5 -1.62 5 -4 5 C-4 4.34 -4 3.68 -4 3 C-2.68 2.34 -1.36 1.68 0 1 C0 0.67 0 0.34 0 0 Z " fill="#DFFDFE" transform="translate(224,100)"/>
<path d="M0 0 C2.97 0 5.94 0 9 0 C8.67 0.66 8.34 1.32 8 2 C5.35139573 2.59355614 2.70802678 2.74209269 0 3 C0 2.01 0 1.02 0 0 Z " fill="#F9FDFE" transform="translate(112,100)"/>
<path d="M0 0 C0.99 1.32 1.98 2.64 3 4 C2.67 4.66 2.34 5.32 2 6 C1.34 6 0.68 6 0 6 C-0.33 7.65 -0.66 9.3 -1 11 C-2.31625194 8.36749612 -1.74813658 7.19820944 -1.0625 4.375 C-0.86785156 3.55773437 -0.67320313 2.74046875 -0.47265625 1.8984375 C-0.23869141 0.95871094 -0.23869141 0.95871094 0 0 Z " fill="#E0F7FC" transform="translate(74,101)"/>
<path d="M0 0 C1.4606285 2.64738916 2 3.89448334 2 7 C-1.3 6.34 -4.6 5.68 -8 5 C-8 4.67 -8 4.34 -8 4 C-5.36 4 -2.72 4 0 4 C0 2.68 0 1.36 0 0 Z " fill="#0A5797" transform="translate(143,91)"/>
<path d="M0 0 C0 0.99 0 1.98 0 3 C-0.66 3 -1.32 3 -2 3 C-2.33 3.99 -2.66 4.98 -3 6 C-3.66 6 -4.32 6 -5 6 C-5.33 6.66 -5.66 7.32 -6 8 C-5.62403791 5.21788056 -5.32681541 3.4120716 -3.5625 1.1875 C-2 0 -2 0 0 0 Z " fill="#D0F0FB" transform="translate(36,91)"/>
<path d="M0 0 C0.33 0 0.66 0 1 0 C1 3.96 1 7.92 1 12 C0.01 11.01 -0.98 10.02 -2 9 C-1.85546875 6.73828125 -1.85546875 6.73828125 -1.1875 4.3125 C-0.97480469 3.50425781 -0.76210937 2.69601563 -0.54296875 1.86328125 C-0.36378906 1.24839844 -0.18460937 0.63351563 0 0 Z " fill="#0A5390" transform="translate(108,152)"/>
<path d="M0 0 C1.093125 0.0825 2.18625 0.165 3.3125 0.25 C3.3125 0.58 3.3125 0.91 3.3125 1.25 C1.6625 1.25 0.0125 1.25 -1.6875 1.25 C-2.3475 2.9 -3.0075 4.55 -3.6875 6.25 C-4.6775 5.59 -5.6675 4.93 -6.6875 4.25 C-4.79150483 0.68106792 -4.16790733 0.28256999 0 0 Z " fill="#3286C0" transform="translate(67.6875,150.75)"/>
<path d="M0 0 C0.99 0.33 1.98 0.66 3 1 C2.67 2.32 2.34 3.64 2 5 C0.68 5 -0.64 5 -2 5 C-2 3.68 -2 2.36 -2 1 C-1.34 0.67 -0.68 0.34 0 0 Z " fill="#63A0DB" transform="translate(225,89)"/>
<path d="M0 0 C2.6875 0.3125 2.6875 0.3125 5 1 C5 1.66 5 2.32 5 3 C2.36 3 -0.28 3 -3 3 C-1.8125 1.4375 -1.8125 1.4375 0 0 Z " fill="#0A5496" transform="translate(149,96)"/>
<path d="M0 0 C0 0.99 0 1.98 0 3 C-0.99 3.33 -1.98 3.66 -3 4 C-3.99 3.34 -4.98 2.68 -6 2 C-6 1.34 -6 0.68 -6 0 C-3 -1 -3 -1 0 0 Z " fill="#1462B6" transform="translate(128,97)"/>
<path d="M0 0 C0 0.33 0 0.66 0 1 C-0.78375 1.061875 -1.5675 1.12375 -2.375 1.1875 C-3.24125 1.455625 -4.1075 1.72375 -5 2 C-6.37466625 4.47636012 -6.37466625 4.47636012 -7 7 C-7.66 5.68 -8.32 4.36 -9 3 C-6.38997624 -0.48003168 -4.1689578 -0.27793052 0 0 Z " fill="#0D57A6" transform="translate(164,152)"/>
<path d="M0 0 C0 0.66 0 1.32 0 2 C-3.63 1.67 -7.26 1.34 -11 1 C-11 0.67 -11 0.34 -11 0 C-3.375 -1.125 -3.375 -1.125 0 0 Z " fill="#316AB3" transform="translate(159,140)"/>
<path d="M0 0 C0.33 0.66 0.66 1.32 1 2 C1.66 2.33 2.32 2.66 3 3 C2.01 3.495 2.01 3.495 1 4 C0.34444881 6.52733235 0.34444881 6.52733235 0 9 C-0.99 9 -1.98 9 -3 9 C-2.01 6.03 -1.02 3.06 0 0 Z " fill="#1F61A0" transform="translate(165,124)"/>
<path d="M0 0 C0.33 0 0.66 0 1 0 C1 2.31 1 4.62 1 7 C-0.65 7 -2.3 7 -4 7 C-2.68 4.69 -1.36 2.38 0 0 Z " fill="#1F599B" transform="translate(205,119)"/>
<path d="M0 0 C0.33 0 0.66 0 1 0 C1.309375 1.093125 1.61875 2.18625 1.9375 3.3125 C2.58337897 5.55407994 3.2623117 7.7869351 4 10 C3.34 10.66 2.68 11.32 2 12 C-0.60018816 8.09971775 -0.15085514 4.52565431 0 0 Z " fill="#B8D8EC" transform="translate(176,110)"/>
<path d="M0 0 C2.29633824 3.44450737 2.54016485 5.93812283 3 10 C2.01 9.67 1.02 9.34 0 9 C0 6.03 0 3.06 0 0 Z " fill="#C2E5EF" transform="translate(83,103)"/>
<path d="M0 0 C0.66 0 1.32 0 2 0 C1.47731534 2.76276177 0.89130413 5.3260876 0 8 C-0.66 8 -1.32 8 -2 8 C-1.47731534 5.23723823 -0.89130413 2.6739124 0 0 Z " fill="#FAFDF5" transform="translate(202,104)"/>
<path d="M0 0 C3.3 0.33 6.6 0.66 10 1 C6.23312136 2.88343932 4.97041037 3.22057835 1 3 C0.67 2.01 0.34 1.02 0 0 Z " fill="#055494" transform="translate(62,166)"/>
<path d="M0 0 C0.66 0.66 1.32 1.32 2 2 C1.625 5.625 1.625 5.625 1 9 C-1.14809171 5.77786243 -1.29386153 4.72224599 -1 1 C-0.67 0.67 -0.34 0.34 0 0 Z " fill="#025398" transform="translate(173,152)"/>
<path d="M0 0 C0.99 0.33 1.98 0.66 3 1 C2.34 4.3 1.68 7.6 1 11 C0.34 10.67 -0.32 10.34 -1 10 C-0.67 6.7 -0.34 3.4 0 0 Z " fill="#226BAA" transform="translate(52,112)"/>
<path d="M0 0 C0.33 0 0.66 0 1 0 C0.67 2.97 0.34 5.94 0 9 C-0.99 8.67 -1.98 8.34 -3 8 C-2.01 5.36 -1.02 2.72 0 0 Z " fill="#D1F0F9" transform="translate(167,103)"/>
<path d="M0 0 C0.99 0 1.98 0 3 0 C2.67 1.98 2.34 3.96 2 6 C1.01 5.01 0.02 4.02 -1 3 C-0.67 2.01 -0.34 1.02 0 0 Z " fill="#025CB8" transform="translate(160,108)"/>
<path d="M0 0 C2.0625 0.4375 2.0625 0.4375 4 1 C3.67 2.32 3.34 3.64 3 5 C2.01 4.67 1.02 4.34 0 4 C-0.33 3.01 -0.66 2.02 -1 1 C-0.67 0.67 -0.34 0.34 0 0 Z " fill="#0F5690" transform="translate(117,104)"/>
<path d="M0 0 C1.98 0 3.96 0 6 0 C5.67 1.65 5.34 3.3 5 5 C3.35 3.35 1.7 1.7 0 0 Z " fill="#145D9C" transform="translate(42,104)"/>
</svg>
