<?xml version="1.0" encoding="UTF-8"?>
<svg version="1.1" xmlns="http://www.w3.org/2000/svg" width="512" height="512">
<path d="M0 0 C25.86596316 25.20124197 40.45427859 59.5699649 41.04345703 95.66210938 C40.98709058 114.19009397 37.76376622 131.49833465 31.171875 148.7890625 C29.88571869 151.74344738 29.88571869 151.74344738 30 154 C30.75619629 153.63124756 31.51239258 153.26249512 32.29150391 152.88256836 C35.11473342 151.51510038 37.94428582 150.16199826 40.77880859 148.81811523 C42.00156041 148.23487459 43.22167459 147.64606903 44.43896484 147.05151367 C46.19436521 146.19534334 47.96040142 145.36109018 49.7265625 144.52734375 C50.78439941 144.01937256 51.84223633 143.51140137 52.93212891 142.98803711 C56.62802497 141.79773858 58.32104092 141.74557323 62 143 C64.46467746 144.76213429 66.54968502 146.82479223 68.67578125 148.9765625 C69.5917231 149.88177139 69.5917231 149.88177139 70.52616882 150.80526733 C71.81054242 152.08187567 73.08857895 153.36488743 74.3605957 154.65380859 C76.30463267 156.61705493 78.2761805 158.54922543 80.25195312 160.48046875 C81.49916969 161.72739491 82.7446721 162.97603849 83.98828125 164.2265625 C84.57676346 164.79976227 85.16524567 165.37296204 85.77156067 165.96353149 C88.56100195 168.83382652 89.89368581 170.64190587 91.05541992 174.55493164 C90.99091292 178.5648803 90.17207945 180.46823202 88.125 183.89453125 C87.47684326 185.0019165 86.82868652 186.10930176 86.16088867 187.25024414 C85.440836 188.43781047 84.7205334 189.62522529 84 190.8125 C83.26544039 192.05413885 82.53280166 193.29691593 81.80200195 194.54077148 C80.29283248 197.10469899 78.77439693 199.66277019 77.24853516 202.21679688 C73.82526303 207.95849202 70.51295119 213.76374448 67.1875 219.5625 C63.70243093 225.63018867 60.20525626 231.68540278 56.58203125 237.671875 C56.05907471 238.54513428 55.53611816 239.41839355 54.99731445 240.31811523 C54.03022088 241.92920198 53.05164164 243.53347483 52.05932617 245.12915039 C51.63756104 245.83547607 51.2157959 246.54180176 50.78125 247.26953125 C50.41064453 247.87385986 50.04003906 248.47818848 49.65820312 249.10083008 C48.71097705 251.83394271 49.10322799 253.24603887 50 256 C51.35637988 258.35820074 52.73708475 260.58313976 54.25390625 262.83203125 C54.88437111 263.7869471 54.88437111 263.7869471 55.52757263 264.76115417 C56.86512239 266.78331126 58.21358762 268.79790934 59.5625 270.8125 C60.47403862 272.18636401 61.38485418 273.56070806 62.29492188 274.93554688 C64.52161158 278.29598213 66.75811643 281.64968409 69 285 C68.72212646 284.18845459 68.44425293 283.37690918 68.15795898 282.54077148 C67.12651713 279.50496437 66.10876721 276.464992 65.09985352 273.42163086 C64.66186552 272.10960416 64.21858698 270.79933054 63.76977539 269.4909668 C63.12272327 267.60163219 62.49670623 265.70513553 61.87109375 263.80859375 C61.48880615 262.67220459 61.10651855 261.53581543 60.71264648 260.36499023 C59.3371216 253.87000584 61.00974493 249.32159272 64.28125 243.71875 C64.61031845 243.14822403 64.9393869 242.57769806 65.27842712 241.98988342 C66.34141623 240.15334615 67.42028646 238.32674567 68.5 236.5 C69.24447101 235.22179658 69.98803728 233.94306579 70.73071289 232.66381836 C74.91789752 225.46844897 79.1636542 218.30740253 83.484375 211.19140625 C86.74201067 205.79854856 89.89802676 200.34543191 93.07467651 194.90466309 C98.95404687 184.84177367 104.86193774 174.7962114 110.875 164.8125 C111.45145264 163.84505859 112.02790527 162.87761719 112.62182617 161.88085938 C113.15654541 160.99849609 113.69126465 160.11613281 114.2421875 159.20703125 C114.7047998 158.4385083 115.16741211 157.66998535 115.64404297 156.87817383 C117 155 117 155 120 153 C127.15142833 153.19393704 133.13200541 155.82010903 139.6875 158.5 C153.89099124 164.1412114 168.36714101 168.62251444 183 173 C186.23161252 173.97134522 189.4604691 174.95106307 192.6875 175.9375 C193.88761719 176.29714844 195.08773438 176.65679687 196.32421875 177.02734375 C199 178 199 178 201 180 C201.98277138 182.91887222 202.12555961 185.61193097 202.12698364 188.67672729 C202.12980347 189.61279312 202.13262329 190.54885895 202.13552856 191.51329041 C202.13350433 192.53354813 202.1314801 193.55380585 202.12939453 194.60498047 C202.13202301 196.22535469 202.13202301 196.22535469 202.13470459 197.87846375 C202.13911321 201.45805458 202.1361865 205.03759614 202.1328125 208.6171875 C202.13348631 211.11141977 202.13445699 213.60565198 202.13571167 216.09988403 C202.13718771 221.33710226 202.13513463 226.57430773 202.13037109 231.81152344 C202.12436295 238.4934636 202.12793455 245.17535658 202.13394356 251.8572979 C202.13757696 257.01517027 202.13639736 262.17303324 202.13381577 267.33090591 C202.13315263 269.79223765 202.13395328 272.25357026 202.13629532 274.71490097 C202.16353288 311.42160845 196.67729388 337.52204921 170.6875 364.625 C164.87883808 370.26945946 158.46872339 375.14806312 152 380 C151.30696777 380.52142578 150.61393555 381.04285156 149.89990234 381.58007812 C139.85622379 389.0941874 129.55819438 395.92980429 118.78076172 402.33789062 C115.44948762 404.32905077 112.13217156 406.34252745 108.81640625 408.359375 C108.1887738 408.74111877 107.56114136 409.12286255 106.91448975 409.51617432 C105.6392283 410.29193698 104.36400049 411.06775496 103.08880615 411.84362793 C100.05392083 413.68944146 97.01734456 415.53246376 93.98046875 417.375 C92.94817139 418.00148438 91.91587402 418.62796875 90.85229492 419.2734375 C89.9110376 419.84320313 88.96978027 420.41296875 88 421 C87.15477783 421.54914063 86.30955566 422.09828125 85.4387207 422.6640625 C82.80344662 424.10767245 81.00150781 424.81504285 78 425 C75.30419922 424.03125 75.30419922 424.03125 72.4296875 422.5 C71.37491211 421.94054687 70.32013672 421.38109375 69.23339844 420.8046875 C64.13906246 417.96133719 59.11192379 415.0276896 54.125 412 C53.04782715 411.34845947 51.9706543 410.69691895 50.86083984 410.02563477 C47.56814848 408.02631102 44.28241041 406.01615288 41 404 C40.01515625 403.39526855 39.0303125 402.79053711 38.015625 402.16748047 C21.57418506 392.01792354 5.26877224 381.43397303 -8.7890625 368.08984375 C-10.67548152 366.3067445 -12.59904975 364.68051004 -14.625 363.0625 C-30.51992182 349.47612635 -41.46017163 328.62724131 -44 308 C-44.40141662 301.60004422 -44.3726794 295.17957235 -44.4140625 288.76953125 C-44.43280404 286.92436384 -44.4523796 285.07920473 -44.4727478 283.23405457 C-44.52375984 278.41243415 -44.56354973 273.59078604 -44.60089111 268.76904297 C-44.64112623 263.83489303 -44.69212891 258.9008552 -44.7421875 253.96679688 C-44.83857986 244.31127703 -44.92310036 234.65569341 -45 225 C-46.80549316 225.61705811 -46.80549316 225.61705811 -48.64746094 226.24658203 C-50.25969312 226.79220646 -51.87200193 227.33760454 -53.484375 227.8828125 C-54.27376465 228.15327393 -55.0631543 228.42373535 -55.87646484 228.70239258 C-89.36386986 239.98507211 -126.64225779 235.06452993 -158.08496094 219.98535156 C-162.37507803 217.77794302 -166.4048364 215.16267405 -170.42578125 212.50390625 C-172.93483448 210.74777941 -172.93483448 210.74777941 -176 211 C-178.14787514 212.70935064 -180.05783619 214.39109392 -182 216.3125 C-182.54744873 216.85358398 -183.09489746 217.39466797 -183.65893555 217.95214844 C-187.58157393 222.05583167 -189.45784781 225.481032 -190.08203125 231.234375 C-193.14295914 240.45623433 -204.50444171 248.72435206 -211.2734375 255.546875 C-211.90670582 256.185467 -212.53997414 256.82405899 -213.1924324 257.48200226 C-216.53882997 260.85496014 -219.88878028 264.22434771 -223.24121094 267.59130859 C-226.00055711 270.36403025 -228.75243567 273.14385387 -231.49804688 275.93017578 C-234.83418494 279.31574878 -238.1825412 282.68877062 -241.53993607 286.0532608 C-242.80955821 287.32956665 -244.07494588 288.61010035 -245.33582687 289.89504242 C-253.42949787 298.13441162 -260.61129084 305.19143762 -272.68359375 306.03125 C-280.53924473 305.92527157 -287.71035765 303.77145282 -294 299 C-300.2559339 292.4981997 -303.42878626 285.25834988 -303.5 276.1875 C-303.5309375 274.88167969 -303.561875 273.57585937 -303.59375 272.23046875 C-302.46204875 259.67163565 -292.06394477 251.37975636 -283.65234375 243.09375 C-282.233227 241.67888967 -280.81507524 240.26306087 -279.39784241 238.84631348 C-276.43908199 235.8936916 -273.47229212 232.94948208 -270.4987793 230.01171875 C-266.68809613 226.24649207 -262.89302254 222.46599965 -259.10315609 218.67983246 C-256.18117482 215.7622773 -253.25379432 212.85019337 -250.3244648 209.9400177 C-248.92278116 208.54720635 -247.52216245 207.15332244 -246.12263298 205.75834656 C-244.17007014 203.81482276 -242.21099053 201.87812701 -240.24975586 199.94335938 C-239.38543945 199.08003998 -239.38543945 199.08003998 -238.50366211 198.19927979 C-234.37263743 194.14502324 -232.0240059 192.09827301 -226.21875 191.81640625 C-220.76955492 191.24141002 -218.0419722 187.82530854 -214.5 183.9375 C-213.86835938 183.27427734 -213.23671875 182.61105469 -212.5859375 181.92773438 C-211.04011755 180.29993912 -209.5130653 178.65818434 -208 177 C-208.4125 176.319375 -208.825 175.63875 -209.25 174.9375 C-228.31436365 142.93660388 -237.92191797 107.06504915 -229.98046875 69.78125 C-224.10384327 47.11761071 -214.94494355 27.08338169 -200 9 C-199.05640625 7.84371094 -199.05640625 7.84371094 -198.09375 6.6640625 C-194.11999848 1.9497482 -189.74490857 -2.07466655 -185 -6 C-184.24976563 -6.63808594 -183.49953125 -7.27617188 -182.7265625 -7.93359375 C-129.02814094 -52.50849708 -49.91938958 -47.28021488 0 0 Z M-185 15 C-209.08623217 40.71320233 -218.15210071 73.07582844 -217.17480469 107.69726562 C-215.56125171 138.18350131 -199.84784454 167.86855711 -177.515625 188.26953125 C-160.83709358 202.35746238 -142.46084588 212.45111137 -121 217 C-120.20311768 217.17515137 -119.40623535 217.35030273 -118.58520508 217.53076172 C-88.41392654 223.67742292 -56.99183311 217.02206139 -31 201 C-2.36220628 181.88471192 16.97379941 153.43173337 24.25 119.8125 C29.40441195 86.85400049 22.3969143 54.19499809 3 27 C-10.70002953 8.65174617 -27.15656229 -4.73503451 -48 -14 C-49.06605469 -14.48210938 -50.13210938 -14.96421875 -51.23046875 -15.4609375 C-97.71200274 -34.90188328 -150.4526988 -19.99921082 -185 15 Z M50.9609375 161.1953125 C49.91244629 161.66050293 48.86395508 162.12569336 47.78369141 162.60498047 C45.49589185 163.62516669 43.2091193 164.64765892 40.92333984 165.67236328 C31.09670611 170.04642217 31.09670611 170.04642217 26.390625 171.609375 C16.0069203 175.09933384 11.27471784 180.42204096 5 189 C-2.43023255 198.54292517 -12.2258552 205.32445589 -22.15234375 212.0546875 C-23.09207031 212.69664062 -24.03179687 213.33859375 -25 214 C-26.06208679 214.54391388 -26.06208679 214.54391388 -27.14562988 215.09881592 C-30.04821031 218.0746726 -29.55702655 221.43148532 -29.51757812 225.36425781 C-29.5245874 226.21842285 -29.53159668 227.07258789 -29.53881836 227.95263672 C-29.55646746 230.78646079 -29.54473886 233.61929006 -29.53125 236.453125 C-29.53394591 238.43072704 -29.53782915 240.40832778 -29.54284668 242.38592529 C-29.54875354 246.54224193 -29.54015159 250.69821541 -29.52148438 254.85449219 C-29.4988726 260.14322423 -29.5116965 265.43113631 -29.53577423 270.71983719 C-29.55035346 274.81237758 -29.54556817 278.90472967 -29.53526306 282.99727631 C-29.53261975 284.94422251 -29.53577979 286.89118658 -29.54518127 288.83811188 C-29.62277064 309.45181991 -25.85584194 326.92494724 -12 343 C-10.98099609 344.20076172 -10.98099609 344.20076172 -9.94140625 345.42578125 C5.80493174 363.47372301 25.66935191 376.65350173 46 389 C46.85335937 389.51868652 47.70671875 390.03737305 48.5859375 390.57177734 C52.85746838 393.16147216 57.13927142 395.73220522 61.4375 398.27734375 C64.23727588 399.93623414 67.00835548 401.62572035 69.75 403.37890625 C70.801875 404.03761719 71.85375 404.69632813 72.9375 405.375 C74.25041016 406.22191406 74.25041016 406.22191406 75.58984375 407.0859375 C77.9669314 408.27443972 77.9669314 408.27443972 80.29492188 407.25952148 C83.20263713 405.90564937 85.92899191 404.3923058 88.69140625 402.76171875 C89.79137939 402.11283691 90.89135254 401.46395508 92.0246582 400.79541016 C93.20423285 400.0932672 94.38350702 399.39061922 95.5625 398.6875 C96.16170258 398.33129578 96.76090515 397.97509155 97.37826538 397.60809326 C152.53295201 365.55635221 152.53295201 365.55635221 185.25 313 C187.13291602 304.10874063 187.14751342 294.86609974 187.11352539 285.81542969 C187.11374443 284.24735313 187.11374443 284.24735313 187.1139679 282.64759827 C187.1132788 279.23900172 187.10553404 275.83046184 187.09765625 272.421875 C187.0957885 270.04005971 187.09436628 267.65824403 187.09336853 265.27642822 C187.08957148 259.04257119 187.07976553 252.80873787 187.06866455 246.57489014 C187.05838965 240.1996696 187.05385794 233.8244452 187.04882812 227.44921875 C187.03814045 214.96613548 187.02109823 202.48306972 187 190 C185.88894394 189.66135925 184.77788788 189.32271851 183.63316345 188.97381592 C179.44637622 187.69685072 175.26079891 186.41595712 171.07554626 185.13397217 C169.27612203 184.58336664 167.47638652 184.0337772 165.67631531 183.48529053 C152.2825866 179.4031349 139.06804367 175.04328586 126 170 C120.84069757 178.30536563 115.80031306 186.67019853 110.87460327 195.1164856 C109.02641047 198.28527888 107.17287172 201.45094569 105.3203125 204.6171875 C104.76663246 205.56396111 104.76663246 205.56396111 104.20176697 206.52986145 C101.40329544 211.31432748 98.59678565 216.09397569 95.77832031 220.86669922 C94.72740368 222.64758035 93.67981104 224.43042767 92.63574219 226.21533203 C90.00103425 230.70238556 87.29616131 235.12082465 84.4609375 239.484375 C83.89093018 240.37954834 83.32092285 241.27472168 82.73364258 242.19702148 C81.6546414 243.88574896 80.55421721 245.56106469 79.4284668 247.21899414 C78.94804932 247.97817139 78.46763184 248.73734863 77.97265625 249.51953125 C77.54218994 250.17026611 77.11172363 250.82100098 76.66821289 251.49145508 C74.55736429 259.41581365 80.22612137 269.9034987 82.84135818 277.47267723 C83.67842203 279.89705813 84.50862426 282.32369249 85.33700562 284.75105286 C87.69115727 291.6459022 90.05615189 298.53700112 92.42871094 305.42553711 C93.88466193 309.65430702 95.33168973 313.88604503 96.77332687 318.11971474 C97.32247347 319.72640932 97.87507287 321.3319282 98.43123245 322.93620872 C99.20811668 325.17761006 99.97363716 327.42260301 100.73681641 329.66870117 C100.96744278 330.32494476 101.19806915 330.98118835 101.4356842 331.65731812 C102.74512565 335.55722953 103.40110471 338.89139874 103 343 C101 346 101 346 98.125 346.8125 C94.64222928 347.02146624 93.81786363 346.94334304 91 345 C89.19227122 342.62720534 87.55506581 340.28431788 85.94140625 337.78515625 C85.20169334 336.66504654 85.20169334 336.66504654 84.44703674 335.52230835 C82.81059314 333.04103829 81.18683799 330.55170801 79.5625 328.0625 C77.83219472 325.43369639 76.09839302 322.8072214 74.36437988 320.18086243 C73.14777992 318.33785905 71.93222461 316.4941657 70.71765137 314.64982605 C63.60406729 303.85581348 56.36468292 293.14715048 49.125 282.4375 C47.26366655 279.68185643 45.40264245 276.92600423 43.54173279 274.17007446 C42.43167379 272.52636258 41.32131428 270.88285357 40.21058655 269.23959351 C39.23955047 267.80262017 38.26997894 266.36465553 37.30221558 264.92547607 C36.46825392 263.69236749 35.62627839 262.46461799 34.77420044 261.24395752 C31.9326726 257.1349191 31.15326289 255.0498177 32 250 C33.83690777 245.86964754 36.08250845 242.0168633 38.375 238.125 C39.01767822 237.00730225 39.66035645 235.88960449 40.32250977 234.73803711 C42.19948862 231.48268487 44.0960743 228.23964776 46 225 C46.87644733 223.4987827 47.7527703 221.99749279 48.62890625 220.49609375 C50.17153063 217.86228996 51.72403605 215.23457422 53.28125 212.609375 C56.53029858 207.11908458 59.72664249 201.59821057 62.91873169 196.07467651 C63.91513186 194.35119046 64.91347645 192.62882899 65.91186523 190.90649414 C66.52747314 189.84035889 67.14308105 188.77422363 67.77734375 187.67578125 C68.60093384 186.2513269 68.60093384 186.2513269 69.44116211 184.7980957 C71.05221923 181.9062671 72.54139472 178.97123298 74 176 C71.19151503 173.16266225 68.37756077 170.33081251 65.5625 167.5 C64.35883789 166.28376953 64.35883789 166.28376953 63.13085938 165.04296875 C62.36708984 164.27597656 61.60332031 163.50898438 60.81640625 162.71875 C60.10943604 162.00654297 59.40246582 161.29433594 58.67407227 160.56054688 C55.82660424 157.9061768 54.34483103 159.68451203 50.9609375 161.1953125 Z M-198 189 C-201.3 192.3 -204.6 195.6 -208 199 C-207.113125 200.0725 -206.22625 201.145 -205.3125 202.25 C-204.81363281 202.85328125 -204.31476563 203.4565625 -203.80078125 204.078125 C-201.61308067 206.50453961 -201.61308067 206.50453961 -197 210 C-193.7 206.7 -190.4 203.4 -187 200 C-187.886875 198.9275 -188.77375 197.855 -189.6875 196.75 C-190.18636719 196.14671875 -190.68523437 195.5434375 -191.19921875 194.921875 C-193.38691933 192.49546039 -193.38691933 192.49546039 -198 189 Z M-229.4211731 210.91238403 C-229.98496674 211.48898773 -230.54876038 212.06559143 -231.12963867 212.65966797 C-231.73333786 213.26117676 -232.33703705 213.86268555 -232.95903015 214.48242188 C-234.95511023 216.47618757 -236.93652662 218.48388203 -238.91796875 220.4921875 C-240.29910996 221.87825073 -241.68106379 223.26350467 -243.063797 224.64797974 C-245.96064496 227.55247371 -248.85090259 230.46331183 -251.73608398 233.37939453 C-255.44006487 237.12296896 -259.15475366 240.85567521 -262.87372875 244.58434868 C-266.41285558 248.13343664 -269.94699276 251.68747484 -273.48046875 255.2421875 C-274.15826071 255.92337521 -274.83605267 256.60456291 -275.53438377 257.30639267 C-277.44518803 259.22874027 -279.35245449 261.15452271 -281.25854492 263.08154297 C-282.11334442 263.94037582 -282.11334442 263.94037582 -282.9854126 264.81655884 C-286.72159378 268.60442179 -288.15999522 270.45246557 -288.3125 275.75 C-288.25633043 280.61568882 -287.33619627 283.30313386 -284 287 C-279.65550309 290.23052334 -276.17846518 291.25629002 -270.8125 290.625 C-260.84646746 287.37357574 -252.05650787 275.21955314 -244.68359375 267.8515625 C-243.53449899 266.70568941 -242.3853328 265.55988794 -241.23609924 264.41415405 C-238.85021792 262.03420715 -236.46635739 259.65225746 -234.08374023 257.26904297 C-231.02894466 254.2141448 -227.96726621 251.16624319 -224.90388393 248.11995888 C-222.53879615 245.76596219 -220.17823946 243.40746247 -217.81895638 241.04764938 C-216.69102292 239.92089559 -215.5614684 238.79576213 -214.43026543 237.6722908 C-212.85815962 236.10994843 -211.29247531 234.54143959 -209.72827148 232.97119141 C-208.83687973 232.08122467 -207.94548798 231.19125793 -207.02708435 230.27432251 C-204.80989031 228.08825611 -204.80989031 228.08825611 -204 225 C-205.91129057 222.01231474 -208.551587 219.55505119 -211 217 C-211.84304687 216.09378906 -212.68609375 215.18757812 -213.5546875 214.25390625 C-217.13090944 210.46945561 -217.13090944 210.46945561 -221 207 C-225.54585515 207 -226.31683975 207.8490525 -229.4211731 210.91238403 Z " fill="#3A8DFF" transform="translate(307,63)"/>
<path d="M0 0 C21.72827664 18.13997403 35.71029112 42.73920537 38.84472656 71.00854492 C40.84531664 99.19699773 34.56084971 127.83853939 15.81347656 149.75854492 C15.16378906 150.50104492 14.51410156 151.24354492 13.84472656 152.00854492 C13.27753906 152.73041992 12.71035156 153.45229492 12.12597656 154.19604492 C-4.34810975 174.42737899 -30.54410466 185.71306643 -55.90869141 188.78149414 C-83.3303234 191.55286099 -111.18590996 183.8321527 -132.84277344 166.69604492 C-155.89588838 146.8927083 -170.70320395 121.59130054 -173.15527344 91.00854492 C-174.78344197 63.03893544 -166.79058674 35.28711809 -148.15527344 14.00854492 C-109.71018187 -28.26350096 -45.59721366 -36.64767389 0 0 Z M-135.28027344 22.13354492 C-150.75474364 39.79409107 -159.08148088 62.93540715 -158.43652344 86.42260742 C-156.44536904 111.80982594 -146.11941342 134.87285248 -126.90136719 151.98901367 C-108.01876091 167.95406576 -83.83162878 175.82178629 -59.15527344 174.00854492 C-36.23570561 171.51894918 -13.14725789 160.93154656 1.84472656 143.00854492 C18.58306656 121.92861266 25.53676614 98.95208524 23.84472656 72.00854492 C21.37922482 51.01770404 11.58325496 32.99436407 -3.15527344 18.00854492 C-3.90292969 17.24799805 -4.65058594 16.48745117 -5.42089844 15.70385742 C-16.79496129 4.81940654 -30.16454085 -1.6401977 -45.15527344 -5.99145508 C-46.53199219 -6.39170898 -46.53199219 -6.39170898 -47.93652344 -6.80004883 C-80.06593849 -14.17151272 -113.03514648 -0.96716385 -135.28027344 22.13354492 Z " fill="#449EFF" transform="translate(278.1552734375,77.991455078125)"/>
<path d="M0 0 C8.72415268 5.29401006 13.96051503 12.22338319 16.67578125 22.0703125 C17.2969943 25.33025623 17.25045306 26.14963407 15.86328125 29.3203125 C14.99749131 30.34643391 14.1251277 31.37096605 13.17578125 32.3203125 C5.82025121 32.79486283 5.82025121 32.79486283 3.53125 31.109375 C1.91274308 28.97313243 1.20864663 26.98526877 0.36328125 24.4453125 C-1.52532269 19.4695675 -3.40042293 17.23813528 -7.82421875 14.3203125 C-12.67787516 12.70242703 -17.98055004 12.38136528 -22.89453125 14.00390625 C-27.58211052 16.44915864 -30.71683904 19.99053626 -32.390625 25.0234375 C-33.01873739 28.35073555 -33.19217092 31.69602393 -33.38671875 35.0703125 C-33.45149414 36.11638672 -33.45149414 36.11638672 -33.51757812 37.18359375 C-33.62311471 38.89563172 -33.72411785 40.60794811 -33.82421875 42.3203125 C-33.07332977 42.31365067 -32.3224408 42.30698883 -31.54879761 42.30012512 C-24.45751494 42.23990682 -17.36632149 42.1942838 -10.27485466 42.16487598 C-6.62941415 42.14924859 -2.98418568 42.12806445 0.66113281 42.09399414 C4.18191474 42.06129533 7.70249326 42.04343749 11.22341537 42.03568077 C13.2142076 42.02747518 15.2049185 42.00407252 17.19558716 41.98042297 C19.02680618 41.98008308 19.02680618 41.98008308 20.89501953 41.97973633 C21.96535431 41.97307449 23.03568909 41.96641266 24.13845825 41.95954895 C29.22645409 42.56388489 32.38059188 44.50705065 35.92578125 48.1328125 C39.63494535 53.38746164 40.42613644 57.93842862 40.45043945 64.30029297 C40.45555038 64.97106873 40.46066132 65.64184448 40.46592712 66.33294678 C40.47974522 68.53455712 40.47887214 70.73585163 40.4765625 72.9375 C40.48045403 74.479178 40.48478964 76.02085494 40.48954773 77.56253052 C40.49699344 80.78862997 40.4967309 84.01461995 40.49145508 87.24072266 C40.48566597 91.35850161 40.50258565 95.47582995 40.52579975 99.59353447 C40.54059036 102.77644434 40.54140152 105.95924706 40.53829002 109.14218521 C40.53880067 110.65951555 40.54398992 112.17685229 40.55410194 113.69414902 C40.65616977 131.15175625 40.65616977 131.15175625 35.45703125 137.37890625 C34.86921875 137.83394531 34.28140625 138.28898438 33.67578125 138.7578125 C33.08796875 139.23089844 32.50015625 139.70398438 31.89453125 140.19140625 C27.90215552 142.81367122 23.74529984 142.48133047 19.15942383 142.49731445 C18.34278259 142.50388565 17.52614136 142.51045685 16.68475342 142.51722717 C13.97993883 142.53694963 11.27517979 142.54862169 8.5703125 142.55859375 C7.64528112 142.56266928 6.72024975 142.5667448 5.76718712 142.57094383 C0.86912637 142.59180213 -4.0289064 142.60610374 -8.92700195 142.61547852 C-13.976445 142.62653007 -19.02544581 142.66091617 -24.07473278 142.70065022 C-27.96534522 142.72684835 -31.85585291 142.73517329 -35.74654579 142.73875999 C-37.60720105 142.74361929 -39.46785184 142.7552145 -41.32842064 142.77379799 C-43.93959511 142.79825315 -46.54963377 142.79721278 -49.16088867 142.7902832 C-50.30289482 142.80949829 -50.30289482 142.80949829 -51.4679718 142.82910156 C-56.98925618 142.77599081 -61.19912626 141.36637211 -65.82421875 138.3203125 C-70.43104198 133.47724193 -70.97490898 129.54823746 -70.98535156 123.09838867 C-70.99031647 122.36631699 -70.99528137 121.6342453 -71.00039673 120.87998962 C-71.01500308 118.45774393 -71.0218181 116.03556375 -71.02734375 113.61328125 C-71.03309685 111.92800393 -71.03885456 110.24272663 -71.0446167 108.55744934 C-71.05512261 105.02259008 -71.06096783 101.48775354 -71.06445312 97.95288086 C-71.06993433 93.43017949 -71.09395597 88.90777971 -71.12242508 84.38517284 C-71.14107817 80.9029707 -71.1462585 77.42084079 -71.147789 73.93859291 C-71.15081048 72.27167425 -71.15882195 70.60475671 -71.17197418 68.93788719 C-71.18908946 66.60183361 -71.18714128 64.26651131 -71.18066406 61.93041992 C-71.18987885 61.24604858 -71.19909363 60.56167725 -71.20858765 59.85656738 C-71.16333065 54.62815616 -69.87949377 50.57362184 -66.32421875 46.67578125 C-61.93654378 43.25933642 -59.13377422 42.18642217 -53.63671875 42.2578125 C-52.73566406 42.26683594 -51.83460938 42.27585938 -50.90625 42.28515625 C-50.21917969 42.29675781 -49.53210938 42.30835938 -48.82421875 42.3203125 C-48.870625 41.31613281 -48.91703125 40.31195313 -48.96484375 39.27734375 C-49.31626546 28.3213342 -48.63175929 16.81047893 -41.4375 7.87890625 C-30.38561156 -2.7983419 -14.31164124 -6.87920907 0 0 Z M-55.82421875 58.3203125 C-55.92370068 60.43169151 -55.95221513 62.54643536 -55.95361328 64.66015625 C-55.9553656 65.32193878 -55.95711792 65.98372131 -55.95892334 66.66555786 C-55.96334092 68.8630024 -55.96040422 71.06036708 -55.95703125 73.2578125 C-55.95770432 74.77856461 -55.95867436 76.29931662 -55.95993042 77.82006836 C-55.96140726 81.01124086 -55.95925327 84.20238542 -55.95458984 87.39355469 C-55.94889255 91.4929578 -55.95217163 95.59229546 -55.95816231 99.69169617 C-55.96176829 102.83313494 -55.96062917 105.97455808 -55.95803452 109.11599731 C-55.95736535 110.62793994 -55.95819332 112.13988396 -55.96051407 113.65182495 C-55.9630412 115.76141137 -55.95919919 117.87089037 -55.95361328 119.98046875 C-55.95281769 121.18324463 -55.95202209 122.38602051 -55.95120239 123.62524414 C-56.13109468 126.23778435 -56.13109468 126.23778435 -54.82421875 127.3203125 C-52.40103884 127.42592281 -50.00621661 127.46709633 -47.58227539 127.46557617 C-46.82456345 127.46893478 -46.0668515 127.4722934 -45.28617859 127.47575378 C-42.76889428 127.48529172 -40.25167628 127.48720831 -37.734375 127.48828125 C-35.99181592 127.49149186 -34.24925711 127.49485578 -32.50669861 127.49836731 C-28.8489418 127.5043657 -25.19120865 127.50620648 -21.53344727 127.50561523 C-16.83772946 127.50551357 -12.14216273 127.51916687 -7.44648075 127.53638744 C-3.84605711 127.54748545 -0.24567024 127.54953512 3.35476875 127.54900551 C5.08638594 127.55018891 6.81800398 127.55463072 8.54960442 127.56233788 C10.96799284 127.57209361 13.38605004 127.5692774 15.80444336 127.56323242 C16.88533737 127.57166168 16.88533737 127.57166168 17.98806763 127.58026123 C22.03060808 127.67005352 22.03060808 127.67005352 25.17578125 125.3203125 C25.47646168 122.46046429 25.47646168 122.46046429 25.41870117 119.06640625 C25.4217778 117.75164307 25.42485443 116.43687988 25.42802429 115.08227539 C25.42112634 113.64078599 25.41385936 112.19929832 25.40625 110.7578125 C25.40505822 109.28572632 25.40460503 107.81363937 25.40486145 106.34155273 C25.40329609 103.2546717 25.39500259 100.16790656 25.3815918 97.08105469 C25.36460186 93.1196531 25.36077744 89.15837895 25.36153698 85.19694519 C25.36126534 82.15668516 25.35578514 79.11645312 25.34853554 76.07620239 C25.3453482 74.61532808 25.34338131 73.1544506 25.34264183 71.693573 C25.34047899 69.65377669 25.33094287 67.61399219 25.32104492 65.57421875 C25.31723312 64.41220947 25.31342133 63.2502002 25.30949402 62.05297852 C25.36149203 59.35592902 25.36149203 59.35592902 24.17578125 57.3203125 C13.89273587 57.29718874 3.60969663 57.27939725 -6.67336941 57.26850033 C-11.44770155 57.26327157 -16.22201596 57.25617406 -20.99633789 57.24487305 C-25.59988137 57.2340439 -30.20340774 57.22803561 -34.80696297 57.22543526 C-36.56731498 57.22358106 -38.32766601 57.21996054 -40.08801079 57.21458244 C-42.54494152 57.20737164 -45.0018007 57.20632157 -47.45874023 57.20678711 C-48.1938533 57.20319183 -48.92896637 57.19959656 -49.68635559 57.19589233 C-53.04004982 56.90630582 -53.04004982 56.90630582 -55.82421875 58.3203125 Z " fill="#449EFF" transform="translate(226.82421875,84.6796875)"/>
<path d="M0 0 C4.4490079 3.49275484 6.79629689 6.77424352 7.59375 12.4140625 C7.71690883 17.91831461 6.72386608 21.44630748 3.08203125 25.62109375 C1.87546875 26.64203125 1.87546875 26.64203125 0.64453125 27.68359375 C-1.49495749 29.82308249 -0.75562762 35.03888571 -0.87304688 38.04882812 C-1.22029033 44.75128206 -1.22029033 44.75128206 -3.35546875 47.68359375 C-6.66796875 49.12109375 -6.66796875 49.12109375 -10.35546875 49.68359375 C-12.79800196 48.56852424 -14.4690343 47.5700282 -16.35546875 45.68359375 C-16.42872043 42.82091808 -16.4478508 39.98287475 -16.41796875 37.12109375 C-16.41120117 35.91163086 -16.41120117 35.91163086 -16.40429688 34.67773438 C-16.39247393 32.67965619 -16.37453789 30.68161592 -16.35546875 28.68359375 C-16.97035156 28.40515625 -17.58523437 28.12671875 -18.21875 27.83984375 C-21.60620513 26.00677845 -23.65090171 23.09272782 -25.35546875 19.68359375 C-25.91316779 13.72050402 -25.85703323 8.75482507 -22.35546875 3.68359375 C-15.88696469 -2.44446272 -8.11393275 -4.5346523 0 0 Z M-9.35546875 12.68359375 C-9.68546875 13.67359375 -10.01546875 14.66359375 -10.35546875 15.68359375 C-9.69546875 15.68359375 -9.03546875 15.68359375 -8.35546875 15.68359375 C-8.68546875 14.69359375 -9.01546875 13.70359375 -9.35546875 12.68359375 Z " fill="#439BFF" transform="translate(220.35546875,153.31640625)"/>
</svg>
